<svg width="199" height="35" viewBox="0 0 199 35" fill="none" xmlns="http://www.w3.org/2000/svg">
<path fill-rule="evenodd" clip-rule="evenodd" d="M5.10673e-05 5.62941e-07L2.90812 4.35826e-07L12.8786 0V2.90807L2.90812 2.90807L2.90812 12.8786H5.10673e-05V2.90807V5.62941e-07ZM198.197 2.90812V5.16302e-05H195.289H185.318V2.90812H195.289V12.8787H198.197V2.90812ZM19.4466 17.2042V27.2591H15.519V17.2042H12.7958V14.0359H15.519V14.0097C15.519 9.40129 18.6349 7.28035 24.3693 7.28035C26.7783 7.28035 28.8468 7.56838 30.4965 7.85641L29.7633 10.7891C28.1399 10.5534 26.4902 10.3439 24.186 10.3439C20.6773 10.3439 19.4466 11.3913 19.4466 13.7479V14.0359H28.3493V17.2042H19.4466ZM34.2738 27.2591H30.3723V14.0359H33.8024L34.1167 16.4711C36.8137 14.9786 40.2176 13.6955 44.0144 13.6955V17.2304C40.4009 17.2304 37.5468 17.7803 34.2738 19.1419V27.2591ZM66.3742 14.6644C63.5201 14.2192 59.7496 13.7741 55.4291 13.7741C49.4853 13.7741 45.4529 15.4499 45.4529 20.7391C45.4529 25.5833 48.4379 27.5209 53.3082 27.5209C56.6598 27.5209 59.9067 26.4735 62.6298 25.269L62.9441 27.2591H66.3742V14.6644ZM49.3543 20.6082C49.3543 17.9374 51.3967 16.9424 55.0364 16.9424C57.4191 16.9424 60.1947 17.1257 62.4465 17.3875V22.6506C59.5401 23.6194 56.686 24.274 54.0414 24.274C50.7421 24.274 49.3543 23.2528 49.3543 20.6082ZM80.6294 27.5471C72.617 27.5471 69.2653 25.4785 69.2653 20.6082C69.2653 15.7379 72.617 13.6955 80.6294 13.6955C83.9286 13.6955 87.0969 14.1407 89.375 14.6905L88.5633 17.8327C86.7303 17.4399 84.0857 17.021 80.0795 17.021C75.0521 17.021 73.1668 17.8327 73.1668 20.6082C73.1668 23.41 75.0521 24.2217 80.0795 24.2217C84.0857 24.2217 86.7303 23.8027 88.5633 23.41L89.375 26.5783C87.0969 27.1019 84.0595 27.5471 80.6294 27.5471ZM94.0761 20.8439C94.0761 25.8189 96.6945 27.5995 102.324 27.5995C105.047 27.5995 107.718 27.1281 109.708 26.6306L108.949 23.5147C107.09 23.9075 105.1 24.274 102.638 24.274C99.0511 24.274 98.0038 23.3576 98.0038 20.5035V17.2042H108.766V14.0359H98.0038V10.632H94.8616L94.1808 14.0359H91.0387V17.2042H94.0761V20.8439ZM121.548 13.7741C125.868 13.7741 129.639 14.2192 132.493 14.6644V27.2591H129.063L128.749 25.269C126.025 26.4735 122.779 27.5209 119.427 27.5209C114.557 27.5209 111.572 25.5833 111.572 20.7391C111.572 15.4499 115.604 13.7741 121.548 13.7741ZM121.155 16.9424C117.515 16.9424 115.473 17.9374 115.473 20.6082C115.473 23.2528 116.861 24.274 120.16 24.274C122.805 24.274 125.659 23.6194 128.565 22.6506V17.3875C126.313 17.1257 123.538 16.9424 121.155 16.9424ZM139.809 7.62075H135.908V27.2591H139.809V7.62075ZM146.706 21.577C147.125 23.9598 149.141 24.4835 153.959 24.4835C157.86 24.4835 160.95 23.986 162.39 23.7242L163.202 26.5783C160.846 27.1543 157.023 27.5995 153.619 27.5995C146.261 27.5995 142.857 25.6618 142.857 20.6344C142.857 15.6855 146.627 13.6955 153.252 13.6955C159.405 13.6955 163.569 15.2928 163.569 19.7965C163.569 20.3464 163.516 21.2628 163.464 21.577H146.706ZM159.72 19.4823C159.458 17.3352 157.991 16.3663 153.121 16.3663C148.905 16.3663 147.072 17.1519 146.706 19.4823H159.72ZM185.405 23.6456C185.405 20.582 183.127 19.6132 178.702 19.3514L172.339 18.9324C170.69 18.8277 169.747 18.7229 169.747 17.6232C169.747 16.4973 170.951 16.2878 174.827 16.2878C177.89 16.2878 181.059 16.5758 183.887 17.0471L184.489 14.4549C182.263 14.0883 178.44 13.6693 175.717 13.6693C169.407 13.6693 166.081 14.4025 166.081 17.6494C166.081 20.5035 167.836 21.5247 171.92 21.7603L178.152 22.1269C180.718 22.3102 181.739 22.4673 181.739 23.6194C181.739 24.7192 180.613 24.9548 176.791 24.9548C173.099 24.9548 169.564 24.4573 166.998 23.986L166.343 26.5521C168.673 27.0758 172.392 27.5995 176.293 27.5995C182.734 27.5995 185.405 26.7354 185.405 23.6456ZM2.54233e-07 32.0919L0 35H2.90807H12.8786V32.0919H2.90807L2.90807 22.1214H1.12588e-06L2.54233e-07 32.0919ZM198.197 35H195.289H185.318V32.092H195.289V22.1215H198.197V32.092V35Z" fill="black"/>
</svg>
